<svg width="335" height="377" xmlns="http://www.w3.org/2000/svg">
 <g>
  <title>Layer 1</title>
  <path id="svg_2" fill="#2062af" d="m303.5,340.454l-136.21,36.676l-136.212,-36.676l-31.432,-340.525l335.29,0l-31.436,340.525z"/>
  <path id="svg_3" fill="#3c9cd7" d="m167.289,27.511l0,320.367l0.308,0.084l110.229,-29.682l25.443,-290.769l-135.98,0z"/>
  <path id="svg_5" fill="#FFF" d="m167.168,112.656l-97.49,40.602l3.233,40.199l94.257,-40.301l100.265,-42.868l4.157,-41.122l-104.422,43.49z"/>
  <path id="svg_6" fill="#EBEBEB" d="m69.677,153.258l3.233,40.199l94.257,-40.301l0,-40.5l-97.49,40.602z"/>
  <path id="svg_7" fill="#FFF" d="m271.59,69.167l-104.422,43.489l0,40.5l100.265,-42.868l4.157,-41.121z"/>
  <path id="svg_8" fill="#FFF" d="m69.827,153.258l3.234,40.199l144.625,0.461l-3.235,53.598l-47.59,13.398l-45.748,-11.551l-2.772,-33.268l-42.508,0l5.545,64.225l85.945,25.412l85.479,-24.951l11.09,-127.523l-194.065,0z"/>
  <path id="svg_9" fill="#EBEBEB" d="m167.168,153.258l-97.49,0l3.233,40.199l94.257,0.301l0,-40.5zm0,107.528l-0.462,0.129l-45.742,-11.551l-2.772,-33.268l-42.507,0l5.544,64.225l85.939,25.412l0,-44.947z"/>
  <path id="svg_10" fill="#FFF" d="m60.898,69.167l210.692,0l-4.157,41.122l-201.453,0l-5.082,-41.122z"/>
  <path id="svg_11" fill="#EBEBEB" d="m167.168,69.167l-106.27,0l5.082,41.122l101.188,0l0,-41.122z"/>
 </g>
</svg>
