<svg width="230" height="231" xmlns="http://www.w3.org/2000/svg">
 <g stroke="null">
  <title stroke="null">Git Logo</title>
  <rect transform="rotate(-45 109.5226669311523,103.86354064941406) " id="svg_4" height="147.07925" width="126.13625" y="30.32392" x="46.45455" fill="#fff"/>
  <g fill="#f14e32" transform="matrix(1,0,0,1,0,0) translate(0,500) scale(0.10000000149011612,-0.10000000149011612) ">
   <path d="m1085.47574,4977.91329c-22.29552,-11.63244 -51.86131,-37.80544 -137.65058,-123.59471l-108.56947,-109.05416l130.3803,-130.86499c125.53345,-125.53345 130.86499,-130.3803 144.92086,-126.98751c8.23965,1.93874 30.53516,3.3928 48.9532,2.90811c104.2073,-0.96937 189.99657,-107.6001 167.21637,-207.44524l-5.33154,-24.23426l126.98751,-126.98751l126.98751,-126.98751l17.44866,4.84685c29.08111,8.23965 83.36584,2.42343 112.93164,-12.11713c33.44327,-16.47929 68.3406,-51.37662 85.30458,-85.30458c18.41804,-37.80544 20.84146,-96.93703 5.81622,-137.65058c-14.05587,-36.83607 -54.28474,-80.94242 -91.12081,-98.87577c-24.23426,-12.11713 -32.95859,-13.57118 -73.67214,-13.57118c-42.16761,0 -48.9532,1.45406 -78.03431,15.50992c-38.29013,18.90272 -67.85592,49.43788 -85.78927,87.72801c-10.66307,22.29552 -13.0865,34.89733 -13.0865,66.40186c0,21.32615 1.93874,46.52977 3.87748,55.73879l3.87748,16.96398l-114.87038,115.35506c-63.49375,63.00907 -115.35506,114.87038 -115.35506,114.87038c-0.48469,0 0,-139.58932 0.96937,-310.19849c0.48469,-180.78756 2.90811,-310.19849 5.33154,-310.19849c9.6937,0 57.19285,-48.9532 69.30997,-71.24871c48.9532,-91.12081 12.11713,-200.17496 -83.36584,-245.73536c-27.62705,-13.0865 -36.35139,-15.02524 -72.70277,-15.02524c-34.41264,0 -46.04509,2.42343 -68.82529,13.0865c-35.8667,16.47929 -73.18746,51.86131 -88.69738,83.36584c-30.05048,61.55501 -25.68831,118.74786 13.57118,185.63441c6.78559,11.14776 46.52977,44.59103 65.43249,54.28474l10.66307,5.81622l0,312.62191l0,312.13723l-13.0865,5.81622c-25.68831,10.66307 -71.7334,63.00907 -83.85053,94.02892c-12.60181,33.44327 -15.02524,86.27395 -5.33154,115.35506l6.30091,18.90272l-128.92625,128.44156l-128.44156,128.92625l-349.45798,-348.48861c-390.17153,-390.17153 -378.05441,-376.11567 -378.05441,-440.0941c0,-66.88655 -32.4739,-30.53516 539.45456,-603.91768c574.83657,-575.32126 538.96987,-543.33204 606.82579,-543.33204c66.40186,0 30.53516,-31.98922 600.0402,537.03113c570.95909,570.95909 541.3933,538.0005 541.3933,603.91768c0,68.3406 32.4739,31.98922 -543.33204,607.31047c-573.38252,571.92846 -537.03113,539.45456 -603.91768,539.45456c-28.11174,0 -38.77481,-2.42343 -62.52438,-14.54055z"/>
  </g>
 </g>
</svg>
