<svg width="256" height="290" xmlns="http://www.w3.org/2000/svg" >
 <g>
  <title>HTML5 Logo</title>
  <path fill="#E44D26" d="m255.555,0.12267l-23.241,260.36l-104.47,28.962l-104.182,-28.922l-23.217,-260.4l255.11,0z"/>
  <path fill="#F16529" d="m128,267.30667l84.417,-23.403l19.86,-222.49l-104.277,0l0,245.893z"/>
  <path fill="#EBEBEB" d="m82.82,85.28867l45.18,0l0,-31.937l-80.083,0l0.764,8.568l7.85,88.01l71.469,0l0,-31.937l-42.261,0l-2.919,-32.704zm7.198,80.61l-32.06,0l4.474,50.146l65.421,18.16l0.147,-0.04l0,-33.228l-0.14,0.037l-35.568,-9.604l-2.274,-25.471z"/>
  <path fill="#FFF" d="m127.89,149.92967l39.327,0l-3.708,41.42l-35.62,9.614l0,33.226l65.473,-18.145l0.48,-5.396l7.506,-84.08l0.779,-8.576l-74.237,0l0,31.937zm0,-64.719l0,0.078l77.143,0l0.64,-7.178l1.456,-16.191l0.763,-8.568l-80.002,0l0,31.86l0,-0.001z"/>
 </g>
</svg>
