<?xml version="1.0" encoding="UTF-8"?>
<!DOCTYPE svg PUBLIC "-//W3C//DTD SVG 1.0//EN" "http://www.w3.org/TR/2001/REC-SVG-20010904/DTD/svg10.dtd">
<!-- Creator: CorelDRAW 2020 (64 Bit) -->
<svg xmlns="http://www.w3.org/2000/svg" xml:space="preserve" width="215px" height="16px" version="1.0" shape-rendering="geometricPrecision" text-rendering="geometricPrecision" image-rendering="optimizeQuality" fill-rule="evenodd" clip-rule="evenodd"
viewBox="0 0 235000 21000"
 xmlns:xlink="http://www.w3.org/1999/xlink"
 xmlns:xodm="http://www.corel.com/coreldraw/odm/2003">
 <g id="Camada_x0020_1">
  <metadata id="CorelCorpID_0Corel-Layer"/>
  <path fill="#E6E6E6" fill-rule="nonzero" d="M60 20970l0 -9990c0,-130 40,-340 140,-620l4280 -8560c50,-150 240,-330 550,-520 320,-190 560,-280 730,-280l2850 0c180,0 420,90 730,280 320,190 500,370 560,520l4280 8560c90,230 140,430 140,620l0 9990 -2850 0 0 -5710 -8560 0 0 5710 -2850 0zm2850 -8560l8560 0 0 -1080 -3740 -7480 -1080 0 -3740 7480 0 1080z"/>
  <polygon id="1" fill="#E6E6E6" fill-rule="nonzero" points="17170,20970 17170,1000 20030,1000 20030,18120 31440,18120 31440,20970 "/>
  <polygon id="2" fill="#E6E6E6" fill-rule="nonzero" points="34290,20970 34290,1000 48560,1000 48560,3850 37140,3850 37140,9560 45700,9560 45700,12410 37140,12410 37140,18120 48560,18120 48560,20970 "/>
  <path id="3" fill="#E6E6E6" fill-rule="nonzero" d="M51410 20970l0 -4280c0,-80 50,-250 160,-510 100,-270 180,-430 240,-490l4700 -4710 -4700 -4700c-60,-60 -140,-220 -240,-490 -110,-260 -160,-440 -160,-510l0 -4280 2850 0 0 3680 4280 4280 4280 -4280 0 -3680 2850 0 0 4280c0,70 -50,250 -170,510 -110,270 -200,430 -250,490l-4710 4700 4710 4710c50,60 140,220 250,490 120,260 170,430 170,510l0 4280 -2850 0 0 -3680 -4280 -4280 -4280 4280 0 3680 -2850 0z"/>
  <path id="4" fill="#E6E6E6" fill-rule="nonzero" d="M67070 16720l0 -890 2850 0 0 890c0,380 150,710 430,1000 290,280 620,430 1000,430l5710 0c400,0 730,-150 1010,-430 280,-290 410,-620 410,-1000l0 -1400c0,-400 -240,-740 -740,-1030l-8330 -4020 -60 -30c-740,-420 -1300,-960 -1690,-1620 -390,-670 -590,-1310 -590,-1920l0 -1420c0,-1180 420,-2190 1260,-3030 830,-830 1840,-1250 3020,-1250l5710 0c1180,0 2180,420 3020,1250 840,840 1260,1850 1260,3030l0 880 -2860 0 0 -880c0,-380 -140,-720 -430,-1000 -280,-290 -610,-430 -990,-430l-5710 0c-380,0 -710,140 -1000,430 -280,280 -430,620 -430,1000l0 1400c0,400 260,740 770,1020l8310 4030 80 20c740,420 1300,960 1690,1620 380,650 570,1290 570,1920l0 1430c0,1180 -420,2190 -1260,3020 -840,840 -1840,1260 -3020,1260l-5710 0c-1180,0 -2190,-420 -3020,-1260 -840,-830 -1260,-1840 -1260,-3020z"/>
  <path id="5" fill="#E6E6E6" fill-rule="nonzero" d="M82730 20970l0 -9990c0,-130 50,-340 150,-620l4280 -8560c50,-150 240,-330 550,-520 320,-190 560,-280 730,-280l2850 0c170,0 420,90 730,280 310,190 500,370 560,520l4280 8560c90,230 140,430 140,620l0 9990 -2850 0 0 -5710 -8560 0 0 5710 -2860 0zm2860 -8560l8560 0 0 -1080 -3740 -7480 -1090 0 -3730 7480 0 1080z"/>
  <polygon id="6" fill="#E6E6E6" fill-rule="nonzero" points="99850,20970 99850,1000 102530,1000 111260,15610 111260,1000 114120,1000 114120,20970 111460,20970 102700,6360 102700,20970 "/>
  <path id="7" fill="#E6E6E6" fill-rule="nonzero" d="M116970 20970l0 -19970 9990 0c1100,0 2090,440 2960,1310 880,880 1320,1870 1320,2970l0 11410c0,1100 -440,2090 -1320,2970 -850,870 -1840,1310 -2960,1310l-9990 0zm2850 -2850l7140 0c320,0 640,-160 950,-470 320,-320 470,-640 470,-960l0 -11410c0,-330 -150,-640 -470,-960 -310,-310 -630,-470 -950,-470l-7140 0 0 14270z"/>
  <polygon id="8" fill="#E6E6E6" fill-rule="nonzero" points="134090,20970 134090,1000 148350,1000 148350,3850 136940,3850 136940,9560 145500,9560 145500,12410 136940,12410 136940,18120 148350,18120 148350,20970 "/>
  <path id="9" fill="#E6E6E6" fill-rule="nonzero" d="M151210 20970l0 -19970 9980 0c1100,0 2090,440 2970,1310 870,880 1310,1870 1310,2970l0 2850c0,880 -360,1700 -1080,2480 -590,610 -1360,1110 -2310,1490l2990 2990c60,60 140,220 240,490 110,260 160,430 160,510l0 4880 -2850 0 0 -4280 -4250 -4280 -4310 0 0 8560 -2850 0zm2850 -11410l6420 0c470,0 970,-200 1480,-600 440,-380 660,-660 660,-830l0 -2850c0,-330 -160,-640 -470,-960 -320,-310 -630,-470 -960,-470l-7130 0 0 5710z"/>
  <polygon id="10" fill="#01CC00" fill-rule="nonzero" points="168320,3850 168320,1000 182590,1000 182590,3850 176880,3850 176880,20970 174030,20970 174030,3850 "/>
  <polygon id="11" fill="#01CC00" fill-rule="nonzero" points="185440,20970 185440,1000 199710,1000 199710,3850 188290,3850 188290,9560 196850,9560 196850,12410 188290,12410 188290,18120 199710,18120 199710,20970 "/>
  <path id="12" fill="#01CC00" fill-rule="nonzero" d="M202560 16690l0 -11410c0,-1100 430,-2090 1280,-2970 880,-870 1880,-1310 3000,-1310l5700 0c1110,0 2100,440 2970,1310 880,880 1310,1870 1310,2970l0 1420 -2850 0 0 -1420c0,-330 -160,-640 -470,-960 -310,-310 -630,-470 -960,-470l-5700 0c-320,0 -640,160 -960,470 -310,320 -470,630 -470,960l0 11410c0,320 160,640 470,960 320,310 640,470 960,470l5700 0c330,0 650,-160 960,-470 310,-320 470,-640 470,-960l0 -1430 2850 0 0 1430c0,1100 -430,2090 -1310,2970 -850,870 -1840,1310 -2970,1310l-5700 0c-1100,0 -2090,-440 -2970,-1310 -870,-880 -1310,-1870 -1310,-2970z"/>
  <polygon id="13" fill="#01CC00" fill-rule="nonzero" points="219680,20970 219680,1000 222530,1000 222530,9560 231090,9560 231090,1000 233940,1000 233940,20970 231090,20970 231090,12410 222530,12410 222530,20970 "/>
 </g>
</svg>
