<?xml version="1.0" encoding="UTF-8"?>
<!DOCTYPE svg PUBLIC "-//W3C//DTD SVG 1.0//EN" "http://www.w3.org/TR/2001/REC-SVG-20010904/DTD/svg10.dtd">
<!-- Creator: CorelDRAW 2020 (64 Bit) -->
<svg xmlns="http://www.w3.org/2000/svg" xml:space="preserve" width="43px" height="30px" version="1.0" shape-rendering="geometricPrecision" text-rendering="geometricPrecision" image-rendering="optimizeQuality" fill-rule="evenodd" clip-rule="evenodd"
viewBox="0 0 52000 40000"
 xmlns:xlink="http://www.w3.org/1999/xlink"
 xmlns:xodm="http://www.corel.com/coreldraw/odm/2003">
 <g id="Camada_x0020_1">
  <metadata id="CorelCorpID_0Corel-Layer"/>
  <g id="_2381449156640">
   <path fill="#01CC00" fill-rule="nonzero" d="M49080 34160l-1910 0 0 -16260 0 0c-670,860 -1380,1670 -2140,2410 -250,2430 -810,4670 -1690,6630l0 7220 -30630 0 0 -19100 5510 0 450 0c1050,0 1920,-860 1920,-1920l0 0c0,-910 -650,-1670 -1500,-1870 10,-10 20,-30 30,-40l-450 0 -5960 0 -3830 0 -5970 0 -450 0c20,10 30,30 40,40 -860,200 -1500,960 -1500,1870l0 0c0,1060 860,1920 1910,1920l450 0 5520 0 0 19100 -1920 0c-1050,0 -1910,850 -1910,1910 0,1060 860,1910 1910,1910l42120 0c1060,0 1920,-850 1920,-1910 0,-1060 -860,-1910 -1920,-1910l0 0z"/>
   <g>
    <path fill="#01CC00" d="M45790 5460c-90,-90 -220,-140 -330,-140 -2470,50 -5320,1410 -7250,3430 1630,1150 3040,2600 4200,4370 2070,-1940 3470,-4840 3520,-7330 0,-130 -50,-250 -140,-330l0 0zm3160 -3160c-190,-190 -460,-290 -700,-280 -5410,100 -11720,3260 -15730,7850 -4340,150 -7960,1460 -10220,3720 -240,240 -340,600 -240,930 90,340 360,590 700,670l4070 980 -20 30c-340,370 -330,950 30,1310l6890 6890c180,190 430,280 680,280 230,0 450,-80 640,-240l20 -30 980 4080c80,330 340,600 670,700 90,20 170,30 260,30 250,0 500,-100 680,-280 2260,-2260 3560,-5880 3720,-10210 4600,-4030 7750,-10330 7850,-15740 0,-260 -100,-510 -280,-690l0 0z"/>
    <path fill="#01CC00" fill-rule="nonzero" d="M23720 21660c-1280,1280 -2930,6620 -3250,7670 -100,340 0,710 240,960 190,180 430,280 680,280 90,0 190,-20 280,-40 1050,-320 6390,-1960 7670,-3250 1560,-1550 1560,-4070 0,-5620 -1550,-1550 -4070,-1550 -5620,0z"/>
   </g>
  </g>
 </g>
</svg>
